<?xml version="1.0" encoding="utf-8"?>
<!-- Generator: Adobe Illustrator 22.1.0, SVG Export Plug-In . SVG Version: 6.00 Build 0)  -->
<svg version="1.1" id="Layer_1" xmlns="http://www.w3.org/2000/svg" xmlns:xlink="http://www.w3.org/1999/xlink" x="0px" y="0px"
	 viewBox="0 0 2310 681.4" style="enable-background:new 0 0 2310 681.4;" xml:space="preserve">
<style type="text/css">
	.st0{fill:#FFFFFF;}
</style>
<g>
	<polygon class="st0" points="2197,648.1 167.6,648.1 167.6,644.3 2193.8,644.3 2193.8,618.5 98.8,618.5 98.8,593.9 2253.1,593.9 
		2253.1,571 53.8,571 53.8,567.2 2256.2,567.2 2256.2,597.7 102,597.7 102,614.6 2197,614.6 	"/>
	<g>
		<polygon class="st0" points="102.6,543.1 98,543.1 98,487.6 118.3,487.6 118.3,465.9 140,465.9 140,471.5 122.9,471.5 
			122.9,493.2 102.6,493.2 		"/>
		<polygon class="st0" points="260.7,541.6 256.1,541.6 256.1,272 250.6,272 250.6,260.5 243.2,251.5 237.3,258.7 224.2,242.7 
			211.1,258.7 203.7,249.7 203.7,227.6 191,227.6 191,215.1 171.1,215.1 171.1,234.8 160.1,234.8 160.1,325.8 153.3,325.8 
			153.3,541.6 148.8,541.6 148.8,320.2 155.5,320.2 155.5,229.2 166.5,229.2 166.5,209.6 195.6,209.6 195.6,222 208.3,222 
			208.3,247.4 211.1,250.8 224.2,234.8 237.3,250.8 243.2,243.6 255.2,258.2 255.2,266.4 260.7,266.4 		"/>
		<polygon class="st0" points="78.1,541.6 73.5,541.6 73.5,503.1 91.9,503.1 91.9,508.7 78.1,508.7 		"/>
		<polygon class="st0" points="270.8,543.1 266.3,543.1 266.3,477.3 308.5,477.3 308.5,348.1 337,348.1 337,353.7 313.1,353.7 
			313.1,482.9 270.8,482.9 		"/>
		<polygon class="st0" points="347.7,542.6 343.2,542.6 343.2,173.4 388.2,173.4 473.7,193.5 473.7,468.7 469.1,468.7 469.1,198.1 
			387.5,179 347.7,179 		"/>
		<polygon class="st0" points="465.1,182.4 439.3,105 379.7,81.4 351.4,166.6 347.2,164.5 377.1,74.5 442.7,100.5 469.3,180.3 		"/>
		<polygon class="st0" points="384.4,164.4 376.2,78.3 380.7,77.7 388.9,163.7 		"/>
		<polygon class="st0" points="273.6,468.7 269,468.7 269,415.5 276.6,415.5 276.6,297.7 284.9,297.7 284.9,259 320.3,217.3 
			339.3,246.8 339.3,287.9 320.1,261.3 305.1,281.6 305.1,321.4 300.5,321.4 300.5,279.4 320.1,252.9 334.7,273.1 334.7,248.7 
			319.9,225.6 289.4,261.4 289.4,303.3 281.2,303.3 281.2,421.1 273.6,421.1 		"/>
		<rect x="297.9" y="327.9" class="st0" width="39.1" height="5.6"/>
		<rect x="297.9" y="352.2" class="st0" width="12.9" height="5.6"/>
		<rect x="297.9" y="376.5" class="st0" width="12.9" height="5.6"/>
		<rect x="297.9" y="400.8" class="st0" width="12.9" height="5.6"/>
		<rect x="297.9" y="425.1" class="st0" width="12.9" height="5.6"/>
		<rect x="297.9" y="449.4" class="st0" width="12.9" height="5.6"/>
		<polygon class="st0" points="525.9,459.4 521.3,459.4 521.3,353.7 481.1,353.7 481.1,348.1 525.9,348.1 		"/>
		<polygon class="st0" points="568.4,541.6 563.8,541.6 563.8,471.5 494.8,471.5 494.8,480 454.3,480 454.3,488.6 405.9,488.6 
			405.9,477.9 382.7,477.9 377.5,471.5 356.9,471.5 356.9,465.9 379.4,465.9 384.6,472.3 410.5,472.3 410.5,483 449.7,483 
			449.7,474.4 490.3,474.4 490.3,465.9 568.4,465.9 		"/>
		<path class="st0" d="M543.4,430.5l-15.8-36.7h31.6L543.4,430.5z M535.2,399.4l8.2,19.1l8.2-19.1H535.2z"/>
		<polygon class="st0" points="568.4,454 563.8,454 563.8,141.1 601.3,13.9 611.5,13.9 680.1,43.2 711,159.4 711,447 706.5,447 
			706.5,159.8 676.5,47.6 610.7,19.5 604.5,19.5 568.4,142 		"/>
		<polygon class="st0" points="614,480 574.3,480 574.3,474.4 609.5,474.4 609.5,51.7 689.7,82.8 688.3,88.2 614,59.3 		"/>
		<polygon class="st0" points="855.6,543.1 851,543.1 851,462.2 831.4,462.2 831.4,456.8 695.8,456.8 695.8,480 639.7,480 
			639.7,541.6 635.1,541.6 635.1,474.4 691.2,474.4 691.2,451.2 835.9,451.2 835.9,456.6 855.6,456.6 		"/>
		<polygon class="st0" points="747.6,335.8 729.3,335.8 729.3,324.2 716.3,324.2 716.3,318.6 733.8,318.6 733.8,330.2 743.1,330.2 
			743.1,301.6 760.5,301.6 760.5,310.9 769.3,310.9 769.3,328.8 764.8,328.8 764.8,316.5 755.9,316.5 755.9,307.1 747.6,307.1 		"/>
		<polygon class="st0" points="955.1,541.6 950.5,541.6 950.5,424.2 902.4,424.2 902.4,415.7 874,415.7 874,427.3 856.7,427.3 
			856.7,415.7 827,415.7 827,426.5 808.7,426.5 808.7,435.1 760.3,435.1 760.3,426.5 724.3,426.5 724.3,446.2 719.8,446.2 
			719.8,421 764.9,421 764.9,429.5 804.1,429.5 804.1,421 822.5,421 822.5,410.1 861.3,410.1 861.3,421.7 869.4,421.7 869.4,410.1 
			906.9,410.1 906.9,418.6 955.1,418.6 		"/>
		<polygon class="st0" points="763.6,412.9 759.1,412.9 759.1,334.1 825.1,334.1 825.1,405.1 820.6,405.1 820.6,339.7 763.6,339.7 
					"/>
		<polygon class="st0" points="848,405.1 843.4,405.1 843.4,386.2 829.2,386.2 829.2,380.6 848,380.6 		"/>
		<polygon class="st0" points="1047.7,477.2 1043.1,477.2 1043.1,264.5 1031.5,264.5 1031.5,259.1 958.9,259.1 958.9,269.2 
			927.8,269.2 927.8,362.2 900.6,362.2 900.6,383.4 896,383.4 896,356.6 923.3,356.6 923.3,263.6 954.3,263.6 954.3,253.5 
			1036.1,253.5 1036.1,258.9 1047.7,258.9 		"/>
		<polygon class="st0" points="853.3,405.1 886.9,405.1 870.1,387.3 		"/>
		<polygon class="st0" points="1000.7,528 1045.9,528 1023.3,515.1 		"/>
		<polygon class="st0" points="906.3,405.1 901.7,405.1 901.7,397.1 883.1,397.1 883.1,391.5 906.3,391.5 		"/>
		<polygon class="st0" points="1176.4,543.1 1171.8,543.1 1171.8,490.1 1110.4,490.1 1110.4,501.4 1075.4,501.4 1075.4,489.3 
			993.8,489.3 993.8,495.5 972.1,495.5 972.1,483.1 962.1,483.1 962.1,541.6 957.5,541.6 957.5,477.5 976.7,477.5 976.7,490 
			989.2,490 989.2,483.8 1080,483.8 1080,495.8 1105.9,495.8 1105.9,484.5 1176.4,484.5 		"/>
		<polygon class="st0" points="1069.2,477.2 1064.7,477.2 1064.7,334.1 1071,334.1 1071,218.6 1092.3,218.6 1092.3,224.2 
			1075.6,224.2 1075.6,339.7 1069.2,339.7 		"/>
		<polygon class="st0" points="1081.9,208.2 1077.3,208.2 1077.3,183 1112.6,183 1112.6,188.5 1081.9,188.5 		"/>
		<path class="st0" d="M1150.4,477.2h-4.6V188.5h-15.2v-34.9h-18c-7.9,0-15.4,12-18,17.3v4.7h-4.6v-6.2l0.3-0.6
			c0.4-0.8,9.7-20.8,22.3-20.8h22.6V183h15.2V477.2z"/>
		<path class="st0" d="M1176.4,477.2h-4.6V364h8.2V225.6h12.7v-7h23.5v-5.2l2-0.3c3.5-0.4,86.8-10.6,126.3,19.8l1.1,0.8v234.9h-4.6
			V236.9c-35.3-25.9-107.3-19.8-120.3-18.4v5.7h-23.5v7h-12.7v138.4h-8.2V477.2z"/>
		<polygon class="st0" points="1430,543.1 1425.4,543.1 1425.4,525 1289.2,525 1289.2,541.3 1284.7,541.3 1284.7,519.4 1430,519.4 
					"/>
		<polygon class="st0" points="1430,514.8 1425.4,514.8 1425.4,504.3 1380.4,491.9 1380.4,483.1 1334.9,483.1 1334.9,493.4 
			1289.2,506.6 1289.2,514.8 1284.7,514.8 1284.7,502.2 1330.3,489 1330.3,477.5 1385,477.5 1385,487.4 1430,499.8 		"/>
		<polygon class="st0" points="1416,334.6 1411.4,334.6 1411.4,326.5 1399.4,326.5 1399.4,316.8 1385.5,316.8 1385.5,302.5 
			1367.8,302.5 1367.8,316.8 1351,316.8 1351,311.3 1363.3,311.3 1363.3,296.9 1390,296.9 1390,311.3 1404,311.3 1404,320.9 
			1416,320.9 		"/>
		<polygon class="st0" points="1444.4,337.4 1425.4,337.4 1425.4,302.5 1394.1,302.5 1394.1,296.9 1430,296.9 1430,331.8 
			1444.4,331.8 		"/>
		<polygon class="st0" points="1573.2,540 1568.7,540 1568.7,535.5 1479.3,535.5 1479.3,514.5 1436.6,514.5 1436.6,508.9 
			1483.9,508.9 1483.9,529.9 1573.2,529.9 		"/>
		<polygon class="st0" points="1599.2,540 1594.7,540 1594.7,204.8 1585.2,204.8 1585.2,192.4 1553.5,192.4 1539.3,209.9 
			1453.4,209.9 1453.4,502 1448.9,502 1448.9,204.3 1537.4,204.3 1551.6,186.8 1589.7,186.8 1589.7,199.2 1599.2,199.2 		"/>
		<polygon class="st0" points="1636,317.1 1631.4,317.1 1631.4,287 1605.8,287 1605.8,281.4 1636,281.4 		"/>
		<polygon class="st0" points="1678.5,383.4 1673.9,383.4 1673.9,337.4 1658.1,337.4 1658.1,332 1605.8,332 1605.8,326.4 
			1662.6,326.4 1662.6,331.8 1678.5,331.8 		"/>
		<rect x="1605.8" y="462" class="st0" width="129.3" height="5.6"/>
		<polygon class="st0" points="1786.9,540.7 1782.3,540.7 1782.3,525 1688,525 1688,540 1683.4,540 1683.4,519.4 1786.9,519.4 		"/>
		<polygon class="st0" points="1785.6,511.7 1781.1,511.7 1781.1,467.5 1776.6,462.1 1776.6,448.2 1746.3,448.2 1746.3,511.7 
			1741.8,511.7 1741.8,442.7 1781.2,442.7 1781.2,459.8 1785.6,465.2 		"/>
		<polygon class="st0" points="1710.8,453.2 1706.3,453.2 1706.3,428.1 1643.5,428.1 1643.5,417.2 1630.9,417.2 1630.9,434.3 
			1618.3,434.3 1618.3,453.2 1613.7,453.2 1613.7,428.7 1626.4,428.7 1626.4,411.7 1648.1,411.7 1648.1,422.5 1710.8,422.5 		"/>
		<polygon class="st0" points="1743.2,414.4 1738.6,414.4 1738.6,392.8 1703.7,392.8 1703.7,378.5 1688,378.5 1688,394.8 
			1648.7,394.8 1648.7,404.4 1644.1,404.4 1644.1,389.2 1683.4,389.2 1683.4,372.9 1708.3,372.9 1708.3,387.2 1743.2,387.2 		"/>
		<polygon class="st0" points="1758.4,438.5 1753.8,438.5 1753.8,426.5 1717.4,426.5 1717.4,421 1758.4,421 		"/>
		<polygon class="st0" points="1707.7,364.8 1703.1,364.8 1703.1,338.8 1730.1,338.8 1730.1,344.4 1707.7,344.4 		"/>
		<polygon class="st0" points="1720,329.2 1715.4,329.2 1715.4,314.4 1725.3,314.4 1725.3,296.9 1759.3,296.9 1759.3,302.5 
			1729.8,302.5 1729.8,319.9 1720,319.9 		"/>
		<polygon class="st0" points="1771,438.5 1766.5,438.5 1766.5,134.9 1777.3,134.9 1777.3,110.1 1805.9,110.1 1805.9,134.1 
			1816.6,134.1 1824.6,143.9 1824.6,431.1 1820.1,431.1 1820.1,146.2 1814.7,139.7 1801.4,139.7 1801.4,115.7 1781.8,115.7 
			1781.8,140.5 1771,140.5 		"/>
		<polygon class="st0" points="1876.9,540 1872.4,540 1872.4,503 1839.2,481.4 1795.6,481.4 1795.6,475.8 1840.3,475.8 
			1876.9,499.6 		"/>
		<polygon class="st0" points="2203.4,540 2198.9,540 2198.9,487.6 1871.5,487.6 1871.5,482 2203.4,482 		"/>
		<polygon class="st0" points="2226.3,540 2221.7,540 2221.7,497.9 2208.1,497.9 2208.1,492.3 2226.3,492.3 		"/>
		<polygon class="st0" points="2203.4,463.3 2198.9,463.3 2198.9,332 2189.4,332 2189.4,319.9 2133.7,319.9 2133.7,332 2122.9,332 
			2122.9,375.7 2118.3,375.7 2118.3,326.4 2129.1,326.4 2129.1,314.4 2193.9,314.4 2193.9,326.4 2203.4,326.4 		"/>
		<polygon class="st0" points="1893.4,431.1 1888.8,431.1 1888.8,386.2 1862.8,386.2 1862.8,373.8 1845.2,373.8 1845.2,386.2 
			1837.4,386.2 1837.4,431.1 1832.8,431.1 1832.8,380.6 1840.7,380.6 1840.7,368.2 1867.4,368.2 1867.4,380.6 1893.4,380.6 		"/>
		<polygon class="st0" points="1983.8,423.7 1979.2,423.7 1979.2,148.5 1955.4,119.4 1955.4,111 1928.3,111 1928.3,134.3 
			1923.8,134.3 1923.8,423.7 1919.3,423.7 1919.3,128.7 1923.7,128.7 1923.7,105.4 1960,105.4 1960,117.1 1983.8,146.2 		"/>
		<polygon class="st0" points="2128.6,423.7 2124.1,423.7 2124.1,386.2 2094.7,386.2 2094.7,373.8 2079,373.8 2079,381.6 
			2064.7,381.6 2064.7,391.5 2047.3,391.5 2047.3,417.2 2036.1,417.2 2036.1,423.7 2031.5,423.7 2031.5,411.7 2042.8,411.7 
			2042.8,385.9 2060.1,385.9 2060.1,376 2074.4,376 2074.4,368.2 2099.3,368.2 2099.3,380.6 2128.6,380.6 		"/>
		<rect x="1857.5" y="412.1" class="st0" width="8.1" height="65.1"/>
		<rect x="1906.5" y="412.1" class="st0" width="8.1" height="65.1"/>
		<rect x="1955.4" y="412.1" class="st0" width="8.1" height="65.1"/>
		<rect x="2004.3" y="412.1" class="st0" width="8.1" height="65.1"/>
		<rect x="2053.3" y="412.1" class="st0" width="8.1" height="65.1"/>
		<rect x="2102.2" y="412.1" class="st0" width="8.1" height="65.1"/>
		<rect x="2151.1" y="412.1" class="st0" width="8.1" height="65.1"/>
		<rect x="1795.6" y="441.9" class="st0" width="51.2" height="5.6"/>
		<rect x="1871.5" y="441.9" class="st0" width="29.2" height="5.6"/>
		<rect x="1921.6" y="441.9" class="st0" width="29.2" height="5.6"/>
		<rect x="1971.6" y="441.9" class="st0" width="29.2" height="5.6"/>
		<rect x="2019.2" y="441.9" class="st0" width="29.2" height="5.6"/>
		<rect x="2066.7" y="441.9" class="st0" width="29.2" height="5.6"/>
		<rect x="2116.8" y="441.9" class="st0" width="29.2" height="5.6"/>
		<rect x="130.5" y="477.2" class="st0" width="3.8" height="15.5"/>
		<rect x="138.1" y="477.2" class="st0" width="3.8" height="15.5"/>
		<rect x="108.1" y="499.7" class="st0" width="12.3" height="5.4"/>
		<rect x="108.1" y="509.4" class="st0" width="12.3" height="5.4"/>
		<rect x="108.1" y="519.1" class="st0" width="12.3" height="5.4"/>
		<rect x="108.1" y="528.8" class="st0" width="12.3" height="5.4"/>
		<rect x="124.4" y="499.7" class="st0" width="18.4" height="5.4"/>
		<rect x="124.4" y="509.4" class="st0" width="18.4" height="5.4"/>
		<rect x="124.4" y="519.1" class="st0" width="18.4" height="5.4"/>
		<rect x="124.4" y="528.8" class="st0" width="18.4" height="5.4"/>
		<polygon class="st0" points="182.7,482.7 180.2,482.7 180.2,360.9 161.6,360.9 161.6,357.8 182.7,357.8 		"/>
		<polygon class="st0" points="213.6,505.1 211.1,505.1 211.1,282.1 176.4,282.1 176.4,350.9 173.9,350.9 173.9,279 213.6,279 		"/>
		<polygon class="st0" points="224.2,482.7 221.6,482.7 221.6,349.3 247.8,349.3 247.8,352.4 224.2,352.4 		"/>
		<rect x="166.3" y="241.8" class="st0" width="2.5" height="22.7"/>
		<rect x="173.9" y="241.8" class="st0" width="2.5" height="22.7"/>
		<rect x="181.5" y="241.8" class="st0" width="2.5" height="22.7"/>
		<rect x="166.3" y="273.3" class="st0" width="2.5" height="53.2"/>
		<rect x="181.5" y="289.9" class="st0" width="12.3" height="5.2"/>
		<rect x="198.6" y="289.9" class="st0" width="8.7" height="5.2"/>
		<rect x="181.5" y="304.9" class="st0" width="12.3" height="5.2"/>
		<rect x="198.6" y="304.9" class="st0" width="8.7" height="5.2"/>
		<rect x="181.5" y="319.9" class="st0" width="12.3" height="5.2"/>
		<rect x="198.6" y="319.9" class="st0" width="8.7" height="5.2"/>
		<rect x="181.5" y="334.8" class="st0" width="12.3" height="5.2"/>
		<rect x="198.6" y="334.8" class="st0" width="8.7" height="5.2"/>
		<rect x="217.7" y="272.3" class="st0" width="8.4" height="5.2"/>
		<rect x="229.4" y="272.3" class="st0" width="5.9" height="5.2"/>
		<rect x="217.7" y="287.3" class="st0" width="8.4" height="5.2"/>
		<rect x="229.4" y="287.3" class="st0" width="5.9" height="5.2"/>
		<rect x="217.7" y="302.3" class="st0" width="8.4" height="5.2"/>
		<rect x="229.4" y="302.3" class="st0" width="5.9" height="5.2"/>
		<rect x="217.7" y="317.3" class="st0" width="8.4" height="5.2"/>
		<rect x="229.4" y="317.3" class="st0" width="5.9" height="5.2"/>
		<rect x="188.2" y="355" class="st0" width="5.5" height="5.2"/>
		<rect x="198.6" y="355" class="st0" width="8.7" height="5.2"/>
		<rect x="188.2" y="370" class="st0" width="5.5" height="5.2"/>
		<rect x="198.6" y="370" class="st0" width="8.7" height="5.2"/>
		<rect x="188.2" y="385" class="st0" width="5.5" height="5.2"/>
		<rect x="198.6" y="385" class="st0" width="8.7" height="5.2"/>
		<rect x="188.2" y="405.1" class="st0" width="5.5" height="5.2"/>
		<rect x="198.6" y="405.1" class="st0" width="8.7" height="5.2"/>
		<rect x="188.2" y="420.1" class="st0" width="5.5" height="5.2"/>
		<rect x="198.6" y="420.1" class="st0" width="8.7" height="5.2"/>
		<rect x="188.2" y="435.1" class="st0" width="5.5" height="5.2"/>
		<rect x="198.6" y="435.1" class="st0" width="8.7" height="5.2"/>
		<rect x="161.9" y="367.7" class="st0" width="16.3" height="5.2"/>
		<rect x="161.9" y="382.7" class="st0" width="16.3" height="5.2"/>
		<rect x="161.9" y="397.6" class="st0" width="16.3" height="5.2"/>
		<rect x="161.9" y="417.8" class="st0" width="16.3" height="5.2"/>
		<rect x="161.9" y="432.8" class="st0" width="16.3" height="5.2"/>
		<rect x="161.9" y="447.8" class="st0" width="16.3" height="5.2"/>
		<rect x="227.2" y="362.5" class="st0" width="16.3" height="5.2"/>
		<rect x="227.2" y="377.5" class="st0" width="16.3" height="5.2"/>
		<rect x="227.2" y="392.5" class="st0" width="16.3" height="5.2"/>
		<rect x="227.2" y="412.6" class="st0" width="16.3" height="5.2"/>
		<rect x="227.2" y="427.6" class="st0" width="16.3" height="5.2"/>
		<rect x="227.2" y="442.6" class="st0" width="16.3" height="5.2"/>
		<rect x="188.2" y="455.3" class="st0" width="5.5" height="5.2"/>
		<rect x="198.6" y="455.3" class="st0" width="8.7" height="5.2"/>
		<rect x="188.2" y="470.3" class="st0" width="5.5" height="5.2"/>
		<rect x="198.6" y="470.3" class="st0" width="8.7" height="5.2"/>
		<rect x="188.2" y="485.3" class="st0" width="5.5" height="5.2"/>
		<rect x="198.6" y="485.3" class="st0" width="8.7" height="5.2"/>
		<line class="st0" x1="243.5" y1="264.6" x2="243.5" y2="340"/>
		<rect x="312.5" y="277.5" class="st0" width="2.5" height="42.4"/>
		<rect x="325.6" y="277.5" class="st0" width="2.5" height="42.4"/>
		<rect x="309.1" y="288.3" class="st0" width="23.7" height="3.1"/>
		<rect x="309.1" y="298.4" class="st0" width="23.7" height="3.1"/>
		<rect x="309.1" y="308.5" class="st0" width="23.7" height="3.1"/>
		<rect x="317.5" y="359.4" class="st0" width="3.5" height="8.3"/>
		<rect x="317.5" y="375.2" class="st0" width="3.5" height="8.3"/>
		<rect x="317.5" y="390.9" class="st0" width="3.5" height="8.3"/>
		<rect x="317.5" y="406.7" class="st0" width="3.5" height="8.3"/>
		<rect x="317.5" y="422.5" class="st0" width="3.5" height="8.3"/>
		<rect x="317.5" y="438.2" class="st0" width="3.5" height="8.3"/>
		<rect x="317.5" y="454" class="st0" width="3.5" height="8.3"/>
		<rect x="317.5" y="469.8" class="st0" width="3.5" height="8.3"/>
		<rect x="317.5" y="485.5" class="st0" width="3.5" height="8.3"/>
		<rect x="325.1" y="359.4" class="st0" width="3.5" height="8.3"/>
		<rect x="332.8" y="359.4" class="st0" width="3.5" height="8.3"/>
		<rect x="325.1" y="454" class="st0" width="3.5" height="8.3"/>
		<rect x="332.8" y="454" class="st0" width="3.5" height="8.3"/>
		<rect x="325.1" y="469.8" class="st0" width="3.5" height="8.3"/>
		<rect x="332.8" y="469.8" class="st0" width="3.5" height="8.3"/>
		<rect x="325.1" y="485.5" class="st0" width="3.5" height="8.3"/>
		<rect x="332.8" y="485.5" class="st0" width="3.5" height="8.3"/>
		<rect x="325.1" y="386.3" class="st0" width="11.9" height="3.1"/>
		<rect x="325.1" y="402" class="st0" width="11.9" height="3.1"/>
		<rect x="325.1" y="417.8" class="st0" width="11.9" height="3.1"/>
		<rect x="325.1" y="433.6" class="st0" width="11.9" height="3.1"/>
		<rect x="385.4" y="176.2" class="st0" width="4.6" height="258.9"/>
		<rect x="353.5" y="192.7" class="st0" width="3.4" height="32.6"/>
		<rect x="364.8" y="192.7" class="st0" width="3.4" height="32.6"/>
		<rect x="376.1" y="192.7" class="st0" width="3.4" height="32.6"/>
		<rect x="353.5" y="235.4" class="st0" width="3.4" height="11.5"/>
		<rect x="364.8" y="235.4" class="st0" width="3.4" height="11.5"/>
		<rect x="376.1" y="235.4" class="st0" width="3.4" height="11.5"/>
		<rect x="353.5" y="258.8" class="st0" width="3.4" height="11.5"/>
		<rect x="364.8" y="258.8" class="st0" width="3.4" height="11.5"/>
		<rect x="376.1" y="258.8" class="st0" width="3.4" height="11.5"/>
		<rect x="353.5" y="282.3" class="st0" width="3.4" height="11.5"/>
		<rect x="364.8" y="282.3" class="st0" width="3.4" height="11.5"/>
		<rect x="376.1" y="282.3" class="st0" width="3.4" height="11.5"/>
		<rect x="353.5" y="305.7" class="st0" width="3.4" height="11.5"/>
		<rect x="364.8" y="305.7" class="st0" width="3.4" height="11.5"/>
		<rect x="376.1" y="305.7" class="st0" width="3.4" height="11.5"/>
		<rect x="353.5" y="329.2" class="st0" width="3.4" height="11.5"/>
		<rect x="364.8" y="329.2" class="st0" width="3.4" height="11.5"/>
		<rect x="376.1" y="329.2" class="st0" width="3.4" height="11.5"/>
		<rect x="353.5" y="352.6" class="st0" width="3.4" height="11.5"/>
		<rect x="364.8" y="352.6" class="st0" width="3.4" height="11.5"/>
		<rect x="376.1" y="352.6" class="st0" width="3.4" height="11.5"/>
		<rect x="353.5" y="376.1" class="st0" width="3.4" height="11.5"/>
		<rect x="364.8" y="376.1" class="st0" width="3.4" height="11.5"/>
		<rect x="376.1" y="376.1" class="st0" width="3.4" height="11.5"/>
		<rect x="353.5" y="399.5" class="st0" width="3.4" height="11.5"/>
		<rect x="364.8" y="399.5" class="st0" width="3.4" height="11.5"/>
		<rect x="376.1" y="399.5" class="st0" width="3.4" height="11.5"/>
		<rect x="353.5" y="423" class="st0" width="3.4" height="11.5"/>
		<rect x="364.8" y="423" class="st0" width="3.4" height="11.5"/>
		<rect x="376.1" y="423" class="st0" width="3.4" height="11.5"/>
		<polygon class="st0" points="471.2,216.5 395.1,199.4 395.6,196.4 471.6,213.4 		"/>
		<polygon class="st0" points="471.2,243.9 395.1,226.8 395.6,223.8 471.6,240.8 		"/>
		<polygon class="st0" points="471.2,256.9 395.1,239.9 395.6,236.8 471.6,253.9 		"/>
		<polygon class="st0" points="471.2,270 395.1,252.9 395.6,249.9 471.6,266.9 		"/>
		<polygon class="st0" points="471.2,283 395.1,266 395.6,262.9 471.6,280 		"/>
		<polygon class="st0" points="471.2,296.1 395.1,279 395.6,276 471.6,293 		"/>
		<polygon class="st0" points="471.2,365.6 395.1,348.5 395.6,345.5 471.6,362.5 		"/>
		<polygon class="st0" points="471.2,378.6 395.1,361.6 395.6,358.5 471.6,375.6 		"/>
		<polygon class="st0" points="471.2,391.7 395.1,374.6 395.6,371.6 471.6,388.6 		"/>
		<polygon class="st0" points="471.2,404.7 395.1,387.7 395.6,384.6 471.6,401.7 		"/>
		<polygon class="st0" points="471.2,417.8 395.1,400.7 395.6,397.7 471.6,414.7 		"/>
		<rect x="481.1" y="360" class="st0" width="35.5" height="4.1"/>
		<rect x="481.1" y="372.9" class="st0" width="35.5" height="4.1"/>
		<rect x="481.1" y="385.7" class="st0" width="35.5" height="4.1"/>
		<rect x="481.1" y="398.5" class="st0" width="35.5" height="4.1"/>
		<rect x="481.1" y="411.3" class="st0" width="35.5" height="4.1"/>
		<rect x="481.1" y="424.2" class="st0" width="35.5" height="4.1"/>
		<rect x="481.1" y="437" class="st0" width="35.5" height="4.1"/>
		<rect x="481.1" y="449.8" class="st0" width="35.5" height="4.1"/>
		<path class="st0" d="M542.9,376.2l-17-46.4v11h-4.6V314h39.1L542.9,376.2z M527.1,319.6l15.2,41.4l11.7-41.4H527.1z"/>
		<rect x="530.2" y="362.1" class="st0" width="2.5" height="25.7"/>
		<rect x="550.5" y="362.1" class="st0" width="2.5" height="25.7"/>
		<rect x="530.2" y="419.4" class="st0" width="2.5" height="40.1"/>
		<rect x="550.5" y="419.4" class="st0" width="2.5" height="40.1"/>
		<rect x="499.8" y="477.2" class="st0" width="4.3" height="5.2"/>
		<rect x="507.7" y="477.2" class="st0" width="4.3" height="5.2"/>
		<rect x="515.6" y="477.2" class="st0" width="4.3" height="5.2"/>
		<rect x="523.5" y="477.2" class="st0" width="4.3" height="5.2"/>
		<rect x="531.4" y="477.2" class="st0" width="4.3" height="5.2"/>
		<rect x="539.3" y="477.2" class="st0" width="4.3" height="5.2"/>
		<rect x="547.2" y="477.2" class="st0" width="4.3" height="5.2"/>
		<rect x="555.1" y="477.2" class="st0" width="4.3" height="5.2"/>
		<path class="st0" d="M409.7,541.6h-2.5v-42c-14.2-6.5-26.7-1.5-29.8,0v42h-2.5v-44l0.7-0.4c0.6-0.4,15.7-8.6,33.3,0l0.8,0.4V541.6
			z"/>
		<path class="st0" d="M450.8,541.6h-2.5v-42c-14.2-6.5-26.7-1.5-29.8,0v42h-2.5v-44l0.7-0.4c0.6-0.4,15.7-8.6,33.3,0l0.8,0.4V541.6
			z"/>
		<path class="st0" d="M491.9,541.6h-2.5v-42c-14.2-6.5-26.7-1.5-29.8,0v42H457v-44l0.7-0.4c0.6-0.4,15.7-8.6,33.3,0l0.8,0.4V541.6z
			"/>
		<rect x="640.5" y="67.6" class="st0" width="4.6" height="391.8"/>
		<polygon class="st0" points="671.1,459.4 666.5,459.4 666.5,151.4 640.7,68.6 644.9,66.6 671.1,150.3 		"/>
		<rect x="618.9" y="75.4" class="st0" width="3.4" height="23.3"/>
		<rect x="628.3" y="75.4" class="st0" width="3.4" height="23.3"/>
		<rect x="618.9" y="110.5" class="st0" width="3.4" height="23.3"/>
		<rect x="628.3" y="110.5" class="st0" width="3.4" height="23.3"/>
		<rect x="618.9" y="145.7" class="st0" width="3.4" height="23.3"/>
		<rect x="628.3" y="145.7" class="st0" width="3.4" height="23.3"/>
		<rect x="618.9" y="180.8" class="st0" width="3.4" height="23.3"/>
		<rect x="628.3" y="180.8" class="st0" width="3.4" height="23.3"/>
		<rect x="618.9" y="216" class="st0" width="3.4" height="23.3"/>
		<rect x="628.3" y="216" class="st0" width="3.4" height="23.3"/>
		<rect x="618.9" y="251.1" class="st0" width="3.4" height="23.3"/>
		<rect x="628.3" y="251.1" class="st0" width="3.4" height="23.3"/>
		<rect x="618.9" y="286.3" class="st0" width="3.4" height="23.3"/>
		<rect x="628.3" y="286.3" class="st0" width="3.4" height="23.3"/>
		<rect x="618.9" y="321.4" class="st0" width="3.4" height="23.3"/>
		<rect x="628.3" y="321.4" class="st0" width="3.4" height="23.3"/>
		<rect x="676.3" y="163.3" class="st0" width="3.4" height="23.3"/>
		<rect x="685.6" y="169.5" class="st0" width="3.4" height="23.3"/>
		<rect x="676.3" y="198.4" class="st0" width="3.4" height="23.3"/>
		<rect x="685.6" y="204.6" class="st0" width="3.4" height="23.3"/>
		<rect x="676.3" y="233.5" class="st0" width="3.4" height="23.3"/>
		<rect x="685.6" y="239.8" class="st0" width="3.4" height="23.3"/>
		<rect x="676.3" y="268.7" class="st0" width="3.4" height="23.3"/>
		<rect x="685.6" y="274.9" class="st0" width="3.4" height="23.3"/>
		<rect x="676.3" y="303.8" class="st0" width="3.4" height="23.3"/>
		<rect x="685.6" y="310" class="st0" width="3.4" height="23.3"/>
		<rect x="695.8" y="175.7" class="st0" width="3.4" height="23.3"/>
		<rect x="695.8" y="210.8" class="st0" width="3.4" height="23.3"/>
		<rect x="695.8" y="246" class="st0" width="3.4" height="23.3"/>
		<rect x="695.8" y="281.1" class="st0" width="3.4" height="23.3"/>
		<rect x="695.8" y="316.2" class="st0" width="3.4" height="23.3"/>
		<rect x="676.3" y="369.7" class="st0" width="3.4" height="23.3"/>
		<rect x="685.6" y="375.9" class="st0" width="3.4" height="23.3"/>
		<rect x="676.3" y="404.9" class="st0" width="3.4" height="23.3"/>
		<rect x="685.6" y="411.1" class="st0" width="3.4" height="23.3"/>
		<rect x="695.8" y="382.1" class="st0" width="3.4" height="23.3"/>
		<rect x="695.8" y="417.3" class="st0" width="3.4" height="23.3"/>
		<rect x="618.9" y="356.6" class="st0" width="3.4" height="23.3"/>
		<rect x="628.3" y="356.6" class="st0" width="3.4" height="23.3"/>
		<rect x="618.9" y="391.7" class="st0" width="3.4" height="23.3"/>
		<rect x="628.3" y="391.7" class="st0" width="3.4" height="23.3"/>
		<rect x="618.9" y="426.8" class="st0" width="3.4" height="23.3"/>
		<rect x="628.3" y="426.8" class="st0" width="3.4" height="23.3"/>
		<rect x="587.3" y="61.9" class="st0" width="4.6" height="400.6"/>
		<rect x="596.5" y="61.9" class="st0" width="8.2" height="36.7"/>
		<rect x="574.4" y="154" class="st0" width="8.2" height="19.9"/>
		<rect x="651.7" y="154" class="st0" width="8.2" height="19.9"/>
		<rect x="727.1" y="349.3" class="st0" width="14.6" height="6.6"/>
		<rect x="727.1" y="367.8" class="st0" width="14.6" height="6.6"/>
		<rect x="727.1" y="386.2" class="st0" width="14.6" height="6.6"/>
		<rect x="727.1" y="404.7" class="st0" width="14.6" height="6.6"/>
		<rect x="774.9" y="349.3" class="st0" width="2.5" height="63.6"/>
		<rect x="780.4" y="349.3" class="st0" width="2.5" height="63.6"/>
		<rect x="785.9" y="349.3" class="st0" width="2.5" height="63.6"/>
		<rect x="801" y="349.3" class="st0" width="2.5" height="63.6"/>
		<rect x="806.5" y="349.3" class="st0" width="2.5" height="63.6"/>
		<rect x="812" y="349.3" class="st0" width="2.5" height="63.6"/>
		<path class="st0" d="M720.1,481.9h-13.3v-18.3h13.3V481.9z M709.4,478.8h8.2v-12.1h-8.2V478.8z"/>
		<path class="st0" d="M743.6,481.9h-13.3v-18.3h13.3V481.9z M732.8,478.8h8.2v-12.1h-8.2V478.8z"/>
		<path class="st0" d="M767.1,481.9h-13.3v-18.3h13.3V481.9z M756.3,478.8h8.2v-12.1h-8.2V478.8z"/>
		<path class="st0" d="M790.5,481.9h-13.3v-18.3h13.3V481.9z M779.7,478.8h8.2v-12.1h-8.2V478.8z"/>
		<path class="st0" d="M720.1,499.3h-13.3v-10.7h13.3V499.3z M709.4,496.2h8.2v-4.5h-8.2V496.2z"/>
		<path class="st0" d="M743.6,499.3h-13.3v-10.7h13.3V499.3z M732.8,496.2h8.2v-4.5h-8.2V496.2z"/>
		<path class="st0" d="M767.1,499.3h-13.3v-10.7h13.3V499.3z M756.3,496.2h8.2v-4.5h-8.2V496.2z"/>
		<path class="st0" d="M790.5,499.3h-13.3v-10.7h13.3V499.3z M779.7,496.2h8.2v-4.5h-8.2V496.2z"/>
		<path class="st0" d="M720.1,522.6h-13.3V504h13.3V522.6z M709.4,519.5h8.2v-12.4h-8.2V519.5z"/>
		<path class="st0" d="M743.6,522.6h-13.3V504h13.3V522.6z M732.8,519.5h8.2v-12.4h-8.2V519.5z"/>
		<path class="st0" d="M666.8,499.3h-13.3v-10.7h13.3V499.3z M656,496.2h8.2v-4.5H656V496.2z"/>
		<path class="st0" d="M690.3,499.3H677v-10.7h13.3V499.3z M679.5,496.2h8.2v-4.5h-8.2V496.2z"/>
		<path class="st0" d="M666.8,522.6h-13.3V504h13.3V522.6z M656,519.5h8.2v-12.4H656V519.5z"/>
		<path class="st0" d="M690.3,522.6H677V504h13.3V522.6z M679.5,519.5h8.2v-12.4h-8.2V519.5z"/>
		<path class="st0" d="M767.1,522.6h-13.3V504h13.3V522.6z M756.3,519.5h8.2v-12.4h-8.2V519.5z"/>
		<path class="st0" d="M790.5,522.6h-13.3V504h13.3V522.6z M779.7,519.5h8.2v-12.4h-8.2V519.5z"/>
		<polygon class="st0" points="830.5,517.3 827.9,517.3 827.9,478.8 806.5,478.8 806.5,454 809,454 809,475.7 830.5,475.7 		"/>
		<rect x="836.2" y="477.2" class="st0" width="2.5" height="48.3"/>
		<rect x="844.4" y="477.2" class="st0" width="2.5" height="56.1"/>
		<rect x="831.9" y="420.6" class="st0" width="2.5" height="7.5"/>
		<rect x="836.2" y="420.6" class="st0" width="2.5" height="7.5"/>
		<rect x="840.4" y="420.6" class="st0" width="2.5" height="7.5"/>
		<rect x="844.6" y="420.6" class="st0" width="2.5" height="7.5"/>
		<rect x="848.8" y="420.6" class="st0" width="2.5" height="7.5"/>
		<rect x="879.7" y="419" class="st0" width="2.5" height="7.5"/>
		<rect x="883.9" y="419" class="st0" width="2.5" height="7.5"/>
		<rect x="888.2" y="419" class="st0" width="2.5" height="7.5"/>
		<rect x="892.4" y="419" class="st0" width="2.5" height="7.5"/>
		<rect x="896.6" y="419" class="st0" width="2.5" height="7.5"/>
		<rect x="814.9" y="435.9" class="st0" width="15.8" height="3.4"/>
		<rect x="838" y="435.9" class="st0" width="15.8" height="3.4"/>
		<rect x="861" y="435.9" class="st0" width="15.8" height="3.4"/>
		<rect x="884" y="435.9" class="st0" width="15.8" height="3.4"/>
		<rect x="907.1" y="435.9" class="st0" width="15.8" height="3.4"/>
		<rect x="930.1" y="435.9" class="st0" width="15.8" height="3.4"/>
		<rect x="838" y="444.9" class="st0" width="15.8" height="3.4"/>
		<rect x="861" y="444.9" class="st0" width="15.8" height="3.4"/>
		<rect x="884" y="444.9" class="st0" width="15.8" height="3.4"/>
		<rect x="907.1" y="444.9" class="st0" width="15.8" height="3.4"/>
		<rect x="930.1" y="444.9" class="st0" width="15.8" height="3.4"/>
		<rect x="861" y="454" class="st0" width="15.8" height="3.4"/>
		<rect x="884" y="454" class="st0" width="15.8" height="3.4"/>
		<rect x="907.1" y="454" class="st0" width="15.8" height="3.4"/>
		<rect x="930.1" y="454" class="st0" width="15.8" height="3.4"/>
		<rect x="861" y="463" class="st0" width="15.8" height="3.4"/>
		<rect x="884" y="463" class="st0" width="15.8" height="3.4"/>
		<rect x="907.1" y="463" class="st0" width="15.8" height="3.4"/>
		<rect x="930.1" y="463" class="st0" width="15.8" height="3.4"/>
		<rect x="861" y="472.1" class="st0" width="15.8" height="3.4"/>
		<rect x="884" y="472.1" class="st0" width="15.8" height="3.4"/>
		<rect x="907.1" y="472.1" class="st0" width="15.8" height="3.4"/>
		<rect x="930.1" y="472.1" class="st0" width="15.8" height="3.4"/>
		<rect x="861" y="481.1" class="st0" width="15.8" height="3.4"/>
		<rect x="884" y="481.1" class="st0" width="15.8" height="3.4"/>
		<rect x="907.1" y="481.1" class="st0" width="15.8" height="3.4"/>
		<rect x="930.1" y="481.1" class="st0" width="15.8" height="3.4"/>
		<rect x="861" y="490.2" class="st0" width="15.8" height="3.4"/>
		<rect x="884" y="490.2" class="st0" width="15.8" height="3.4"/>
		<rect x="907.1" y="490.2" class="st0" width="15.8" height="3.4"/>
		<rect x="930.1" y="490.2" class="st0" width="15.8" height="3.4"/>
		<rect x="861" y="514.8" class="st0" width="15.8" height="3.4"/>
		<rect x="884" y="514.8" class="st0" width="15.8" height="3.4"/>
		<rect x="907.1" y="514.8" class="st0" width="15.8" height="3.4"/>
		<rect x="930.1" y="514.8" class="st0" width="15.8" height="3.4"/>
		<rect x="861" y="523.9" class="st0" width="15.8" height="3.4"/>
		<rect x="884" y="523.9" class="st0" width="15.8" height="3.4"/>
		<rect x="907.1" y="523.9" class="st0" width="15.8" height="3.4"/>
		<rect x="930.1" y="523.9" class="st0" width="15.8" height="3.4"/>
		<rect x="861" y="532.9" class="st0" width="15.8" height="3.4"/>
		<rect x="884" y="532.9" class="st0" width="15.8" height="3.4"/>
		<rect x="907.1" y="532.9" class="st0" width="15.8" height="3.4"/>
		<rect x="930.1" y="532.9" class="st0" width="15.8" height="3.4"/>
		<rect x="936.8" y="266.4" class="st0" width="2.5" height="133.3"/>
		<rect x="949.4" y="266.4" class="st0" width="2.5" height="133.3"/>
		<rect x="962.1" y="256.3" class="st0" width="2.5" height="199.4"/>
		<rect x="974.8" y="256.3" class="st0" width="2.5" height="199.4"/>
		<rect x="987.5" y="256.3" class="st0" width="2.5" height="199.4"/>
		<rect x="1000.2" y="256.3" class="st0" width="2.5" height="199.4"/>
		<rect x="1012.8" y="256.3" class="st0" width="2.5" height="199.4"/>
		<rect x="1025.5" y="256.3" class="st0" width="2.5" height="199.4"/>
		<rect x="1098.6" y="192.7" class="st0" width="13.9" height="4.3"/>
		<rect x="1131.6" y="192.7" class="st0" width="9.7" height="4.3"/>
		<rect x="1098.6" y="206.1" class="st0" width="13.9" height="4.3"/>
		<rect x="1131.6" y="206.1" class="st0" width="9.7" height="4.3"/>
		<rect x="1098.6" y="219.5" class="st0" width="13.9" height="4.3"/>
		<rect x="1131.6" y="219.5" class="st0" width="9.7" height="4.3"/>
		<rect x="1098.6" y="232.8" class="st0" width="13.9" height="4.3"/>
		<rect x="1131.6" y="232.8" class="st0" width="9.7" height="4.3"/>
		<rect x="1098.6" y="246.2" class="st0" width="13.9" height="4.3"/>
		<rect x="1131.6" y="246.2" class="st0" width="9.7" height="4.3"/>
		<rect x="1098.6" y="259.6" class="st0" width="13.9" height="4.3"/>
		<rect x="1131.6" y="259.6" class="st0" width="9.7" height="4.3"/>
		<rect x="1098.6" y="273" class="st0" width="13.9" height="4.3"/>
		<rect x="1206" y="248.3" class="st0" width="13.9" height="4.3"/>
		<rect x="1206" y="261.7" class="st0" width="13.9" height="4.3"/>
		<rect x="1206" y="275.1" class="st0" width="13.9" height="4.3"/>
		<rect x="1227.6" y="248.3" class="st0" width="13.9" height="4.3"/>
		<rect x="1227.6" y="261.7" class="st0" width="13.9" height="4.3"/>
		<rect x="1227.6" y="275.1" class="st0" width="13.9" height="4.3"/>
		<rect x="1249.1" y="248.3" class="st0" width="13.9" height="4.3"/>
		<rect x="1249.1" y="261.7" class="st0" width="13.9" height="4.3"/>
		<rect x="1249.1" y="275.1" class="st0" width="13.9" height="4.3"/>
		<rect x="1270.7" y="248.3" class="st0" width="13.9" height="4.3"/>
		<rect x="1270.7" y="261.7" class="st0" width="13.9" height="4.3"/>
		<rect x="1270.7" y="275.1" class="st0" width="13.9" height="4.3"/>
		<rect x="1292.2" y="248.3" class="st0" width="13.9" height="4.3"/>
		<rect x="1292.2" y="261.7" class="st0" width="13.9" height="4.3"/>
		<rect x="1292.2" y="275.1" class="st0" width="13.9" height="4.3"/>
		<rect x="1313.8" y="248.3" class="st0" width="13.9" height="4.3"/>
		<rect x="1313.8" y="261.7" class="st0" width="13.9" height="4.3"/>
		<rect x="1313.8" y="275.1" class="st0" width="13.9" height="4.3"/>
		<rect x="1206" y="305.3" class="st0" width="13.9" height="4.3"/>
		<rect x="1206" y="318.7" class="st0" width="13.9" height="4.3"/>
		<rect x="1206" y="332.1" class="st0" width="13.9" height="4.3"/>
		<rect x="1227.6" y="305.3" class="st0" width="13.9" height="4.3"/>
		<rect x="1227.6" y="318.7" class="st0" width="13.9" height="4.3"/>
		<rect x="1227.6" y="332.1" class="st0" width="13.9" height="4.3"/>
		<rect x="1249.1" y="305.3" class="st0" width="13.9" height="4.3"/>
		<rect x="1249.1" y="318.7" class="st0" width="13.9" height="4.3"/>
		<rect x="1249.1" y="332.1" class="st0" width="13.9" height="4.3"/>
		<rect x="1270.7" y="305.3" class="st0" width="13.9" height="4.3"/>
		<rect x="1270.7" y="318.7" class="st0" width="13.9" height="4.3"/>
		<rect x="1270.7" y="332.1" class="st0" width="13.9" height="4.3"/>
		<rect x="1292.2" y="305.3" class="st0" width="13.9" height="4.3"/>
		<rect x="1292.2" y="318.7" class="st0" width="13.9" height="4.3"/>
		<rect x="1292.2" y="332.1" class="st0" width="13.9" height="4.3"/>
		<rect x="1313.8" y="305.3" class="st0" width="13.9" height="4.3"/>
		<rect x="1313.8" y="318.7" class="st0" width="13.9" height="4.3"/>
		<rect x="1313.8" y="332.1" class="st0" width="13.9" height="4.3"/>
		<rect x="1206" y="362.3" class="st0" width="13.9" height="4.3"/>
		<rect x="1206" y="375.7" class="st0" width="13.9" height="4.3"/>
		<rect x="1206" y="389.1" class="st0" width="13.9" height="4.3"/>
		<rect x="1227.6" y="362.3" class="st0" width="13.9" height="4.3"/>
		<rect x="1227.6" y="375.7" class="st0" width="13.9" height="4.3"/>
		<rect x="1227.6" y="389.1" class="st0" width="13.9" height="4.3"/>
		<rect x="1249.1" y="362.3" class="st0" width="13.9" height="4.3"/>
		<rect x="1249.1" y="375.7" class="st0" width="13.9" height="4.3"/>
		<rect x="1249.1" y="389.1" class="st0" width="13.9" height="4.3"/>
		<rect x="1270.7" y="362.3" class="st0" width="13.9" height="4.3"/>
		<rect x="1270.7" y="375.7" class="st0" width="13.9" height="4.3"/>
		<rect x="1270.7" y="389.1" class="st0" width="13.9" height="4.3"/>
		<rect x="1292.2" y="362.3" class="st0" width="13.9" height="4.3"/>
		<rect x="1292.2" y="375.7" class="st0" width="13.9" height="4.3"/>
		<rect x="1292.2" y="389.1" class="st0" width="13.9" height="4.3"/>
		<rect x="1313.8" y="362.3" class="st0" width="13.9" height="4.3"/>
		<rect x="1313.8" y="375.7" class="st0" width="13.9" height="4.3"/>
		<rect x="1313.8" y="389.1" class="st0" width="13.9" height="4.3"/>
		<rect x="1206" y="419.3" class="st0" width="13.9" height="4.3"/>
		<rect x="1206" y="432.7" class="st0" width="13.9" height="4.3"/>
		<rect x="1206" y="446" class="st0" width="13.9" height="4.3"/>
		<rect x="1227.6" y="419.3" class="st0" width="13.9" height="4.3"/>
		<rect x="1227.6" y="432.7" class="st0" width="13.9" height="4.3"/>
		<rect x="1227.6" y="446" class="st0" width="13.9" height="4.3"/>
		<rect x="1249.1" y="419.3" class="st0" width="13.9" height="4.3"/>
		<rect x="1249.1" y="432.7" class="st0" width="13.9" height="4.3"/>
		<rect x="1249.1" y="446" class="st0" width="13.9" height="4.3"/>
		<rect x="1270.7" y="419.3" class="st0" width="13.9" height="4.3"/>
		<rect x="1270.7" y="432.7" class="st0" width="13.9" height="4.3"/>
		<rect x="1270.7" y="446" class="st0" width="13.9" height="4.3"/>
		<rect x="1292.2" y="419.3" class="st0" width="13.9" height="4.3"/>
		<rect x="1292.2" y="432.7" class="st0" width="13.9" height="4.3"/>
		<rect x="1292.2" y="446" class="st0" width="13.9" height="4.3"/>
		<rect x="1313.8" y="419.3" class="st0" width="13.9" height="4.3"/>
		<rect x="1313.8" y="432.7" class="st0" width="13.9" height="4.3"/>
		<rect x="1313.8" y="446" class="st0" width="13.9" height="4.3"/>
		<rect x="1131.6" y="273" class="st0" width="9.7" height="4.3"/>
		<rect x="1098.6" y="305.3" class="st0" width="13.9" height="4.3"/>
		<rect x="1131.6" y="305.3" class="st0" width="9.7" height="4.3"/>
		<rect x="1098.6" y="318.7" class="st0" width="13.9" height="4.3"/>
		<rect x="1131.6" y="318.7" class="st0" width="9.7" height="4.3"/>
		<rect x="1098.6" y="332.1" class="st0" width="13.9" height="4.3"/>
		<rect x="1131.6" y="332.1" class="st0" width="9.7" height="4.3"/>
		<rect x="1098.6" y="345.4" class="st0" width="13.9" height="4.3"/>
		<rect x="1131.6" y="345.4" class="st0" width="9.7" height="4.3"/>
		<rect x="1098.6" y="358.8" class="st0" width="13.9" height="4.3"/>
		<rect x="1131.6" y="358.8" class="st0" width="9.7" height="4.3"/>
		<rect x="1098.6" y="372.2" class="st0" width="13.9" height="4.3"/>
		<rect x="1131.6" y="372.2" class="st0" width="9.7" height="4.3"/>
		<rect x="1098.6" y="404.6" class="st0" width="13.9" height="4.3"/>
		<rect x="1131.6" y="404.6" class="st0" width="9.7" height="4.3"/>
		<rect x="1098.6" y="417.9" class="st0" width="13.9" height="4.3"/>
		<rect x="1131.6" y="417.9" class="st0" width="9.7" height="4.3"/>
		<rect x="1098.6" y="431.3" class="st0" width="13.9" height="4.3"/>
		<rect x="1131.6" y="431.3" class="st0" width="9.7" height="4.3"/>
		<rect x="1098.6" y="444.7" class="st0" width="13.9" height="4.3"/>
		<rect x="1131.6" y="444.7" class="st0" width="9.7" height="4.3"/>
		<rect x="1098.6" y="458.1" class="st0" width="13.9" height="4.3"/>
		<rect x="1131.6" y="458.1" class="st0" width="9.7" height="4.3"/>
		<rect x="1098.6" y="471.4" class="st0" width="13.9" height="4.3"/>
		<rect x="1131.6" y="471.4" class="st0" width="9.7" height="4.3"/>
		<polygon class="st0" points="1188.4,543.1 1183.8,543.1 1183.8,490.7 1278,490.7 1278,540 1273.4,540 1273.4,496.3 1188.4,496.3 
					"/>
		<rect x="1193.3" y="503.3" class="st0" width="4.6" height="11.9"/>
		<rect x="1206" y="503.3" class="st0" width="4.6" height="11.9"/>
		<rect x="1218.7" y="503.3" class="st0" width="4.6" height="11.9"/>
		<rect x="1231.4" y="503.3" class="st0" width="4.6" height="11.9"/>
		<polygon class="st0" points="1168,477.2 1163.5,477.2 1163.5,402.5 1155.1,402.5 1155.1,361.6 1160.6,361.6 1160.6,351.2 
			1174.1,351.2 1174.1,356.8 1165.2,356.8 1165.2,367.2 1159.7,367.2 1159.7,396.9 1168,396.9 		"/>
		<rect x="1004" y="533.2" class="st0" width="6.3" height="4.8"/>
		<rect x="1019.1" y="533.2" class="st0" width="6.3" height="4.8"/>
		<rect x="1034.2" y="533.2" class="st0" width="6.3" height="4.8"/>
		<rect x="971.8" y="505.3" class="st0" width="35.3" height="4"/>
		<rect x="1074.7" y="505.3" class="st0" width="35.3" height="4"/>
		<rect x="1118.8" y="505.3" class="st0" width="46.9" height="4"/>
		<rect x="1074.7" y="519.6" class="st0" width="35.3" height="4"/>
		<rect x="1118.8" y="519.6" class="st0" width="46.9" height="4"/>
		<rect x="1074.7" y="533.8" class="st0" width="35.3" height="4"/>
		<rect x="1118.8" y="533.8" class="st0" width="46.9" height="4"/>
		<rect x="1022.9" y="505.3" class="st0" width="44.1" height="4"/>
		<rect x="1296.7" y="507.3" class="st0" width="3.2" height="7.9"/>
		<rect x="1316.6" y="507.3" class="st0" width="3.2" height="7.9"/>
		<rect x="1336.6" y="507.3" class="st0" width="3.2" height="7.9"/>
		<rect x="1356.6" y="507.3" class="st0" width="3.2" height="7.9"/>
		<rect x="1376.5" y="507.3" class="st0" width="3.2" height="7.9"/>
		<rect x="1396.5" y="507.3" class="st0" width="3.2" height="7.9"/>
		<rect x="1416.5" y="507.3" class="st0" width="3.2" height="7.9"/>
		<rect x="1405.5" y="346.5" class="st0" width="38.9" height="5.6"/>
		<rect x="1405.5" y="363.8" class="st0" width="38.9" height="5.6"/>
		<rect x="1405.5" y="381" class="st0" width="38.9" height="5.6"/>
		<rect x="1405.5" y="398.3" class="st0" width="38.9" height="5.6"/>
		<rect x="1405.5" y="415.5" class="st0" width="38.9" height="5.6"/>
		<rect x="1405.5" y="432.8" class="st0" width="38.9" height="5.6"/>
		<rect x="1405.5" y="450" class="st0" width="38.9" height="5.6"/>
		<rect x="1405.5" y="467.3" class="st0" width="38.9" height="5.6"/>
		<rect x="1385.2" y="395.1" class="st0" width="14.1" height="5.6"/>
		<rect x="1385.2" y="408.9" class="st0" width="14.1" height="5.6"/>
		<rect x="1385.2" y="422.7" class="st0" width="14.1" height="5.6"/>
		<rect x="1385.2" y="436.5" class="st0" width="14.1" height="5.6"/>
		<rect x="1385.2" y="450.3" class="st0" width="14.1" height="5.6"/>
		<rect x="1385.2" y="464.1" class="st0" width="14.1" height="5.6"/>
		<rect x="1357.3" y="395.4" class="st0" width="14.1" height="5.6"/>
		<rect x="1357.3" y="409.2" class="st0" width="14.1" height="5.6"/>
		<rect x="1357.3" y="423" class="st0" width="14.1" height="5.6"/>
		<rect x="1357.3" y="436.8" class="st0" width="14.1" height="5.6"/>
		<rect x="1357.3" y="450.6" class="st0" width="14.1" height="5.6"/>
		<rect x="1357.3" y="464.4" class="st0" width="14.1" height="5.6"/>
		<rect x="1536" y="207.1" class="st0" width="4.6" height="290.5"/>
		<rect x="1460.4" y="248.5" class="st0" width="68" height="3.1"/>
		<rect x="1460.4" y="262" class="st0" width="68" height="3.1"/>
		<rect x="1460.4" y="275.4" class="st0" width="68" height="3.1"/>
		<rect x="1460.4" y="334.3" class="st0" width="68" height="3.1"/>
		<rect x="1460.4" y="347.8" class="st0" width="68" height="3.1"/>
		<rect x="1460.4" y="361.2" class="st0" width="68" height="3.1"/>
		<rect x="1460.4" y="420.1" class="st0" width="68" height="3.1"/>
		<rect x="1460.4" y="433.6" class="st0" width="68" height="3.1"/>
		<rect x="1460.4" y="447" class="st0" width="68" height="3.1"/>
		<rect x="1494.1" y="237.7" class="st0" width="4.6" height="256.4"/>
		<rect x="1803.6" y="453.2" class="st0" width="4.6" height="15"/>
		<rect x="1813.1" y="453.2" class="st0" width="4.6" height="15"/>
		<rect x="1822.7" y="453.2" class="st0" width="4.6" height="15"/>
		<rect x="1832.2" y="453.2" class="st0" width="4.6" height="15"/>
		<rect x="1875.2" y="453.2" class="st0" width="4.6" height="15"/>
		<rect x="1884.7" y="453.2" class="st0" width="4.6" height="15"/>
		<rect x="1894.2" y="453.2" class="st0" width="4.6" height="15"/>
		<rect x="1923.2" y="453.2" class="st0" width="4.6" height="15"/>
		<rect x="1932.7" y="453.2" class="st0" width="4.6" height="15"/>
		<rect x="1942.2" y="453.2" class="st0" width="4.6" height="15"/>
		<rect x="1976.2" y="453.2" class="st0" width="4.6" height="15"/>
		<rect x="1985.7" y="453.2" class="st0" width="4.6" height="15"/>
		<rect x="1995.2" y="453.2" class="st0" width="4.6" height="15"/>
		<rect x="2021" y="453.2" class="st0" width="4.6" height="15"/>
		<rect x="2030.5" y="453.2" class="st0" width="4.6" height="15"/>
		<rect x="2040" y="453.2" class="st0" width="4.6" height="15"/>
		<rect x="2070.8" y="453.2" class="st0" width="4.6" height="15"/>
		<rect x="2080.3" y="453.2" class="st0" width="4.6" height="15"/>
		<rect x="2089.8" y="453.2" class="st0" width="4.6" height="15"/>
		<rect x="2119.6" y="453.2" class="st0" width="4.6" height="15"/>
		<rect x="2129.1" y="453.2" class="st0" width="4.6" height="15"/>
		<rect x="2138.6" y="453.2" class="st0" width="4.6" height="15"/>
		<rect x="2165.3" y="453.2" class="st0" width="4.6" height="15"/>
		<rect x="2174.8" y="453.2" class="st0" width="4.6" height="15"/>
		<rect x="2184.3" y="453.2" class="st0" width="4.6" height="15"/>
		<rect x="2133.7" y="339" class="st0" width="25.5" height="3.6"/>
		<rect x="2166.7" y="339" class="st0" width="25.5" height="3.6"/>
		<rect x="2133.7" y="350.9" class="st0" width="25.5" height="3.6"/>
		<rect x="2166.7" y="350.9" class="st0" width="25.5" height="3.6"/>
		<rect x="2133.7" y="362.8" class="st0" width="25.5" height="3.6"/>
		<rect x="2166.7" y="362.8" class="st0" width="25.5" height="3.6"/>
		<rect x="2133.7" y="374.6" class="st0" width="25.5" height="3.6"/>
		<rect x="2166.7" y="374.6" class="st0" width="25.5" height="3.6"/>
		<rect x="2133.7" y="386.5" class="st0" width="25.5" height="3.6"/>
		<rect x="2166.7" y="386.5" class="st0" width="25.5" height="3.6"/>
		<rect x="2133.7" y="398.4" class="st0" width="25.5" height="3.6"/>
		<rect x="2166.7" y="398.4" class="st0" width="25.5" height="3.6"/>
		<rect x="2166.7" y="410.3" class="st0" width="25.5" height="3.6"/>
		<rect x="2166.7" y="422.2" class="st0" width="25.5" height="3.6"/>
		<rect x="2166.7" y="434.1" class="st0" width="25.5" height="3.6"/>
		<path class="st0" d="M1791.6,161.9c-7.9,0-14.3-7.9-14.3-17.5v-6.7h4.6v6.7c0,6.6,4.4,11.9,9.8,11.9c5.4,0,9.8-5.4,9.8-11.9v-6.7
			h4.6v6.7C1805.9,154.1,1799.5,161.9,1791.6,161.9z"/>
		<polygon class="st0" points="1806,429 1799.4,152.4 1804,152.3 1810.6,428.8 		"/>
		<polygon class="st0" points="1786.6,429 1779.2,152.4 1783.7,152.3 1791.1,428.8 		"/>
		<path class="st0" d="M1974.1,157.2c-5.9,0-11.4-5.9-12.1-6.7l-31-40.3l3.3-3.8l30.9,40.2c1.5,1.6,6.4,5.9,10.1,4.9
			c1.7-0.5,3.1-2.2,4.1-5.1l4.2,2.2c-1.6,4.7-4.1,7.5-7.3,8.4C1975.6,157.1,1974.8,157.2,1974.1,157.2z"/>
		<polygon class="st0" points="1957.2,404.7 1954.8,140 1959.4,140 1961.7,404.6 		"/>
		<rect x="1734.2" y="311.3" class="st0" width="9.8" height="5.8"/>
		<rect x="1748.6" y="311.3" class="st0" width="9.8" height="5.8"/>
		<rect x="1734.2" y="323.3" class="st0" width="9.8" height="5.8"/>
		<rect x="1748.6" y="323.3" class="st0" width="9.8" height="5.8"/>
		<rect x="1734.2" y="335.4" class="st0" width="9.8" height="5.8"/>
		<rect x="1748.6" y="335.4" class="st0" width="9.8" height="5.8"/>
		<rect x="1734.2" y="350.5" class="st0" width="9.8" height="5.8"/>
		<rect x="1748.6" y="350.5" class="st0" width="9.8" height="5.8"/>
		<rect x="1734.2" y="362.5" class="st0" width="9.8" height="5.8"/>
		<rect x="1748.6" y="362.5" class="st0" width="9.8" height="5.8"/>
		<rect x="1734.2" y="374.5" class="st0" width="9.8" height="5.8"/>
		<rect x="1720.3" y="350.5" class="st0" width="9.8" height="5.8"/>
		<rect x="1720.3" y="362.5" class="st0" width="9.8" height="5.8"/>
		<rect x="1720.3" y="374.5" class="st0" width="9.8" height="5.8"/>
		<rect x="1748.6" y="374.5" class="st0" width="9.8" height="5.8"/>
		<rect x="1843.6" y="392.3" class="st0" width="39.6" height="2.7"/>
		<rect x="1843.6" y="399.7" class="st0" width="39.6" height="2.7"/>
		<rect x="1843.6" y="407.1" class="st0" width="39.6" height="2.7"/>
		<rect x="1843.6" y="414.4" class="st0" width="8.2" height="2.7"/>
		<rect x="1843.6" y="421.8" class="st0" width="8.2" height="2.7"/>
		<rect x="1843.6" y="429.2" class="st0" width="8.2" height="2.7"/>
		<rect x="1870.6" y="414.4" class="st0" width="12.7" height="2.7"/>
		<rect x="1870.6" y="421.8" class="st0" width="12.7" height="2.7"/>
		<rect x="1870.6" y="429.2" class="st0" width="12.7" height="2.7"/>
		<rect x="1656.9" y="405.3" class="st0" width="3.2" height="8.7"/>
		<rect x="1667.3" y="405.3" class="st0" width="3.2" height="8.7"/>
		<rect x="1677.8" y="405.3" class="st0" width="3.2" height="8.7"/>
		<rect x="1688.3" y="405.3" class="st0" width="3.2" height="8.7"/>
		<rect x="1698.7" y="405.3" class="st0" width="3.2" height="8.7"/>
		<rect x="1709.2" y="405.3" class="st0" width="3.2" height="8.7"/>
		<rect x="1719.6" y="405.3" class="st0" width="3.2" height="8.7"/>
		<rect x="1730.1" y="405.3" class="st0" width="3.2" height="8.7"/>
		<rect x="1673.4" y="431.9" class="st0" width="9.8" height="3.9"/>
		<rect x="1673.4" y="440.8" class="st0" width="9.8" height="3.9"/>
		<rect x="1673.4" y="449.7" class="st0" width="9.8" height="3.9"/>
		<rect x="1688.7" y="431.9" class="st0" width="9.8" height="3.9"/>
		<rect x="1688.7" y="440.8" class="st0" width="9.8" height="3.9"/>
		<rect x="1688.7" y="449.7" class="st0" width="9.8" height="3.9"/>
		<rect x="1896.5" y="496.9" class="st0" width="295.7" height="5.6"/>
		<rect x="1939.9" y="509.3" class="st0" width="4.6" height="8.2"/>
		<rect x="1966.2" y="509.3" class="st0" width="4.6" height="8.2"/>
		<rect x="1992.5" y="509.3" class="st0" width="4.6" height="8.2"/>
		<rect x="2018.8" y="509.3" class="st0" width="4.6" height="8.2"/>
		<rect x="2045.1" y="509.3" class="st0" width="4.6" height="8.2"/>
		<rect x="2071.4" y="509.3" class="st0" width="4.6" height="8.2"/>
		<rect x="2097.7" y="509.3" class="st0" width="4.6" height="8.2"/>
		<rect x="2124" y="509.3" class="st0" width="4.6" height="8.2"/>
		<rect x="2150.3" y="509.3" class="st0" width="4.6" height="8.2"/>
		<rect x="2176.6" y="509.3" class="st0" width="4.6" height="8.2"/>
		<rect x="1607.5" y="347.8" class="st0" width="4.5" height="9.8"/>
		<rect x="1620.8" y="347.8" class="st0" width="4.5" height="9.8"/>
		<rect x="1634.1" y="347.8" class="st0" width="4.5" height="9.8"/>
		<rect x="1647.4" y="347.8" class="st0" width="4.5" height="9.8"/>
		<rect x="1660.7" y="347.8" class="st0" width="4.5" height="9.8"/>
		<rect x="1616" y="294" class="st0" width="9.4" height="23.1"/>
	</g>
</g>
</svg>
