<?xml version="1.0" encoding="utf-8"?>
<!-- Generator: Adobe Illustrator 22.1.0, SVG Export Plug-In . SVG Version: 6.00 Build 0)  -->
<svg version="1.1" id="Layer_1" xmlns="http://www.w3.org/2000/svg" xmlns:xlink="http://www.w3.org/1999/xlink" x="0px" y="0px"
	 viewBox="0 0 452 61" style="enable-background:new 0 0 452 61;" xml:space="preserve">
<style type="text/css">
	.st0{fill:#FFFFFF;stroke:#FFFFFF;stroke-width:0.25;stroke-miterlimit:10;}
	.st1{stroke:#000000;stroke-width:0.25;stroke-miterlimit:10;}
</style>
<rect x="-5" y="-9" class="st0" width="532" height="80"/>
<g>
	<path class="st1" d="M9.7,7h9.4V24L32.4,7h11.2L26.5,28.9l18.8,27.2H34.2L19.1,34.3v21.8H9.7V7z"/>
	<path class="st1" d="M51.3,7h9.3v49.1h-9.3V7z"/>
	<path class="st1" d="M71.1,7h9l21,32.3V7h9.3v49.1h-9l-21-32.2v32.2h-9.3V7z"/>
	<path class="st1" d="M166.9,15l-6.6,6.5c-4.2-4.4-9-6.6-14.6-6.6c-4.8,0-8.9,1.6-12.1,4.8c-3.3,3.2-4.9,7.1-4.9,11.7
		c0,4.7,1.7,8.8,5.1,12c3.4,3.3,7.6,4.9,12.5,4.9c3.2,0,5.9-0.7,8.2-2c2.2-1.4,4-3.5,5.4-6.4h-14.2v-8.8h24.7l0.1,2.1
		c0,4.3-1.1,8.4-3.3,12.2c-2.2,3.8-5.1,6.8-8.6,8.8c-3.5,2-7.7,3-12.4,3c-5.1,0-9.6-1.1-13.6-3.3c-4-2.2-7.1-5.4-9.5-9.5
		c-2.3-4.1-3.5-8.5-3.5-13.2c0-6.5,2.1-12.1,6.4-16.9c5.1-5.7,11.7-8.6,19.9-8.6c4.3,0,8.3,0.8,12,2.4
		C160.8,9.5,163.9,11.8,166.9,15z"/>
	<path class="st1" d="M175.3,7h9.2l7.1,31.3L200.3,7h7.8l8.9,31.3L224,7h9.2l-11.1,49.1h-9l-9-31.7l-8.9,31.7h-8.9L175.3,7z"/>
	<path class="st1" d="M263.6,5.8c6.9,0,12.9,2.5,17.9,7.5c5,5,7.5,11.2,7.5,18.4c0,7.2-2.5,13.2-7.4,18.2s-10.9,7.4-17.9,7.4
		c-7.4,0-13.5-2.5-18.4-7.6c-4.9-5.1-7.3-11.1-7.3-18.1c0-4.7,1.1-9,3.4-12.9c2.3-3.9,5.4-7.1,9.4-9.4C254.8,7,259,5.8,263.6,5.8z
		 M263.5,14.9c-4.5,0-8.4,1.6-11.5,4.7c-3.1,3.2-4.6,7.2-4.6,12c0,5.4,1.9,9.7,5.8,12.9c3,2.5,6.5,3.7,10.4,3.7
		c4.4,0,8.2-1.6,11.3-4.8c3.1-3.2,4.7-7.1,4.7-11.8c0-4.7-1.6-8.6-4.7-11.9S268,14.9,263.5,14.9z"/>
	<path class="st1" d="M298.5,7h9.9c5.4,0,9.3,0.5,11.6,1.5c2.3,1,4.1,2.6,5.5,4.8c1.4,2.2,2.1,4.9,2.1,8c0,3.2-0.8,5.9-2.3,8.1
		c-1.5,2.2-3.9,3.8-7,4.9l11.6,21.8h-10.2l-11-20.8h-0.9v20.8h-9.3V7z M307.8,26.2h2.9c3,0,5-0.4,6.1-1.2c1.1-0.8,1.7-2.1,1.7-3.9
		c0-1.1-0.3-2-0.8-2.8c-0.6-0.8-1.3-1.4-2.2-1.7c-0.9-0.3-2.6-0.5-5.1-0.5h-2.6V26.2z"/>
	<path class="st1" d="M337.5,7h9.4V24L360.3,7h11.2l-17.1,21.9l18.8,27.2h-11.1L347,34.3v21.8h-9.4V7z"/>
	<path class="st1" d="M405.6,13.7l-6.9,6.1c-2.4-3.4-4.9-5.1-7.4-5.1c-1.2,0-2.2,0.3-3,1c-0.8,0.7-1.2,1.4-1.2,2.2
		c0,0.8,0.3,1.6,0.8,2.3c0.8,1,3,3.1,6.8,6.3c3.6,3,5.7,4.9,6.5,5.6c1.9,1.9,3.2,3.7,4,5.5s1.2,3.7,1.2,5.7c0,4-1.4,7.3-4.2,10
		c-2.8,2.6-6.4,3.9-10.9,3.9c-3.5,0-6.5-0.9-9.1-2.6s-4.8-4.4-6.7-8.1l7.9-4.7c2.4,4.3,5.1,6.5,8.2,6.5c1.6,0,3-0.5,4-1.4
		c1.1-0.9,1.6-2,1.6-3.2c0-1.1-0.4-2.2-1.2-3.3s-2.6-2.8-5.4-5.1c-5.3-4.4-8.8-7.7-10.4-10.1c-1.6-2.4-2.3-4.7-2.3-7.1
		c0-3.4,1.3-6.3,3.9-8.8c2.6-2.4,5.8-3.7,9.6-3.7c2.4,0,4.8,0.6,7,1.7C400.6,8.6,403,10.7,405.6,13.7z"/>
	<path class="st1" d="M422.7,19.2h-9c0.5-3.6,1.8-6.5,3.9-8.7c3-3.1,6.7-4.6,11.2-4.6c4,0,7.4,1.3,10.1,3.8c2.7,2.6,4.1,5.6,4.1,9.1
		c0,2.2-0.6,4.2-1.8,6c-1.2,1.8-2.9,3.3-5.2,4.4c3,0.9,5.3,2.4,7,4.7c1.7,2.2,2.5,4.8,2.5,7.8c0,4.4-1.6,8.1-4.9,11.2
		c-3.2,3.1-7.4,4.6-12.4,4.6c-4.8,0-8.6-1.4-11.6-4.3s-4.6-6.8-4.9-11.8h9.2c0.4,2.5,1.3,4.4,2.7,5.7c1.4,1.2,3.1,1.9,5.2,1.9
		c2.2,0,4-0.7,5.4-2.1c1.4-1.4,2.2-3.1,2.2-5.1c0-2.2-1-4.1-2.9-5.6c-1.9-1.5-4.7-2.3-8.4-2.4v-8c2.2-0.2,3.9-0.5,5-1.1
		s2-1.2,2.6-2.2c0.6-0.9,0.9-1.9,0.9-2.9c0-1.3-0.5-2.4-1.4-3.3c-0.9-0.9-2.2-1.3-3.7-1.3c-1.3,0-2.5,0.4-3.6,1.2
		S423.1,17.9,422.7,19.2z"/>
</g>
</svg>
